<svg width="343" height="458" viewBox="0 0 343 458" fill="none" xmlns="http://www.w3.org/2000/svg">
<path opacity="0.5" fill-rule="evenodd" clip-rule="evenodd" d="M305.4 179C305.156 193.963 300.049 198.679 288 200.5C298.657 202.217 304.913 205.433 307.218 222C307.218 222 307 201.575 324 198.671C309.671 197.639 307.053 193.356 305.4 179Z" fill="#8ECAD8"/>
<path fill-rule="evenodd" clip-rule="evenodd" d="M90.2919 184C90.0817 197.2 85.5926 201.355 75 202.969C84.37 204.488 89.862 207.325 91.887 221.938C91.887 221.938 91.6959 203.924 106.634 201.365C94.0456 200.438 91.7437 196.665 90.2919 184Z" fill="#8ECAD8"/>
<path fill-rule="evenodd" clip-rule="evenodd" d="M10.774 260C10.6212 269.294 7.45968 272.226 0 273.362C6.60005 274.432 10.4684 276.429 11.9011 286.725C11.9011 286.725 11.7674 274.031 22.2931 272.235C13.4198 271.586 11.8056 268.921 10.774 260Z" fill="#8ECAD8"/>
<path fill-rule="evenodd" clip-rule="evenodd" d="M15.774 49.5913C15.6212 58.8849 12.4597 61.8172 5 62.9538C11.6001 64.0235 15.4684 66.0198 16.9011 76.3163C16.9011 76.3163 16.7674 63.6224 27.2931 61.8267C18.4102 61.1772 16.796 58.5124 15.774 49.5913Z" fill="#D46795"/>
<path opacity="0.5" fill-rule="evenodd" clip-rule="evenodd" d="M234.505 423C234.301 435.175 230.047 439.021 220 440.501C228.889 441.903 234.098 444.518 236.017 458C236.017 458 235.84 441.378 250 439.021C238.06 438.169 235.884 434.684 234.505 423Z" fill="#D46795"/>
<path fill-rule="evenodd" clip-rule="evenodd" d="M62.213 65.0454C62.0602 74.339 58.8986 77.2713 51.439 78.4079C58.039 79.4776 61.9074 81.4739 63.3401 91.7704C63.3401 91.7704 63.2064 79.0765 73.7321 77.2808C64.8588 76.6313 63.2446 73.9665 62.213 65.0454Z" fill="#8ECAD8"/>
<path fill-rule="evenodd" clip-rule="evenodd" d="M266.948 0.611328C266.796 9.90489 263.634 12.8372 256.174 13.9738C262.774 15.0436 266.643 17.0398 268.075 27.3363C268.075 27.3363 267.942 14.6424 278.467 12.8467C269.594 12.1972 267.98 9.53238 266.948 0.611328Z" fill="#8ECAD8"/>
<path fill-rule="evenodd" clip-rule="evenodd" d="M330.934 51.6831C330.781 60.9767 327.619 63.909 320.16 65.0456C326.76 66.1153 330.628 68.1116 332.061 78.4081C332.061 78.4081 331.927 65.7142 342.453 63.9185C333.579 63.269 331.965 60.6137 330.934 51.6831Z" fill="#8ECAD8"/>
</svg>
