<svg width="26" height="28" viewBox="0 0 26 28" fill="none" xmlns="http://www.w3.org/2000/svg">
<path fill-rule="evenodd" clip-rule="evenodd" d="M5.67956 7.31584C5.67956 3.41011 8.98812 0.300049 12.9999 0.300049C17.0117 0.300049 20.3203 3.41011 20.3203 7.31584V8.36847C20.3203 12.2742 17.0117 15.3843 12.9999 15.3843C8.98812 15.3843 5.67956 12.2742 5.67956 8.36847V7.31584ZM12.9999 1.70005C9.69845 1.70005 7.07956 4.24472 7.07956 7.31584V8.36847C7.07956 11.4396 9.69845 13.9843 12.9999 13.9843C16.3014 13.9843 18.9203 11.4396 18.9203 8.36847V7.31584C18.9203 4.24472 16.3014 1.70005 12.9999 1.70005ZM5.94032 19.6991C8.13525 18.756 10.7079 18.0895 12.9988 18.0895C15.2897 18.0895 17.8629 18.7563 20.0583 19.6995C22.2289 20.6321 24.1678 21.8943 25.0824 23.1811L25.0826 23.1814C25.7387 24.1055 25.7477 25.2294 25.339 26.1108C24.9301 26.9927 24.0658 27.7 22.9354 27.7H3.06424C1.93388 27.7 1.06962 26.9927 0.660671 26.1108C0.25196 25.2294 0.260947 24.1055 0.917075 23.1814L0.917174 23.1812C1.83177 21.8938 3.77019 20.6316 5.94032 19.6991ZM2.0585 23.992C1.72451 24.4625 1.70973 25.0452 1.93076 25.5218C2.15156 25.998 2.57061 26.3 3.06424 26.3H22.9354C23.4291 26.3 23.8481 25.998 24.0689 25.5218C24.2899 25.0452 24.2752 24.4626 23.9413 23.9922C23.2536 23.0246 21.606 21.8882 19.5056 20.9858C17.4301 20.0941 15.0479 19.4895 12.9988 19.4895C10.9496 19.4895 8.56797 20.0938 6.49301 20.9854C4.39336 21.8876 2.74639 23.0238 2.0586 23.9919" fill="#808080"/>
</svg>
