<svg width="32" height="25" viewBox="0 0 32 25" fill="none" xmlns="http://www.w3.org/2000/svg">
<path d="M5.6875 18.5034V24.0544H26.3125V18.5034H5.6875Z" fill="#FF9F00"/>
<path d="M16 18.5034H26.3125V24.0544H16V18.5034Z" fill="#FF7816"/>
<path d="M26.4062 10.4356L24.8875 13.359H7.11255L5.59375 10.4356C7.82495 7.38256 11.7063 5.55078 16 5.55078C20.2937 5.55078 24.175 7.38256 26.4062 10.4356Z" fill="#FF4B00"/>
<path d="M26.4062 10.4356L24.8875 13.359H16V5.55078C20.2937 5.55078 24.175 7.38256 26.4062 10.4356Z" fill="#CC1E0D"/>
<path d="M29.8188 8.5856L26.3125 20.3537H5.6875L2.18115 8.5856L4.5437 7.69754C5.61255 9.71435 7.65625 10.8985 9.32495 11.1021H10.3C12.4563 10.7691 14.0686 7.51251 14.7251 4.40381H17.2751C17.9314 7.51251 19.5439 10.7691 21.7 11.1021H22.675C24.3438 10.8985 26.3875 9.71435 27.4563 7.69754L29.8188 8.5856Z" fill="#FDBF00"/>
<path d="M29.8188 8.5856L26.3125 20.3537H16V4.40381H17.2749C17.9314 7.51251 19.5437 10.7691 21.7 11.1021H22.675C24.3438 10.8985 26.3875 9.71435 27.4563 7.69754L29.8188 8.5856Z" fill="#FF9F00"/>
<path d="M2.875 9.25167C1.32422 9.25167 0 8.00655 0 6.47618C0 4.9458 1.32422 3.70068 2.875 3.70068C4.42578 3.70068 5.6875 4.9458 5.6875 6.47618C5.6875 8.00655 4.42578 9.25167 2.875 9.25167Z" fill="#FF9F00"/>
<path d="M29.125 9.25167C27.5742 9.25167 26.3125 8.00655 26.3125 6.47618C26.3125 4.9458 27.5742 3.70068 29.125 3.70068C30.6758 3.70068 32 4.9458 32 6.47618C32 8.00655 30.6758 9.25167 29.125 9.25167Z" fill="#FF7816"/>
<path d="M16 0C14.4436 0 13.1875 1.23958 13.1875 2.77549C13.1875 4.31117 14.4436 5.55099 16 5.55099C17.5564 5.55099 18.8125 4.31117 18.8125 2.77549C18.8125 1.23958 17.5564 0 16 0Z" fill="#FF9F00"/>
<path d="M16.0002 10.7134L12.7939 13.8775L16.0002 17.0416L19.2065 13.8775L16.0002 10.7134Z" fill="#FF4B00"/>
<path d="M21.625 14.4194L22.9507 15.7277L21.625 17.0359L20.2993 15.7277L21.625 14.4194Z" fill="#CC1E0D"/>
<path d="M10.375 14.4194L11.7007 15.7277L10.375 17.0359L9.04932 15.7277L10.375 14.4194Z" fill="#FF4B00"/>
<path d="M16 5.55099V0C17.5564 0 18.8125 1.23958 18.8125 2.77549C18.8125 4.31117 17.5564 5.55099 16 5.55099Z" fill="#FF7816"/>
<path d="M19.2063 13.8775L16 17.0416V10.7134L19.2063 13.8775Z" fill="#CC1E0D"/>
</svg>
