<svg width="150" height="158" viewBox="0 0 150 158" fill="none" xmlns="http://www.w3.org/2000/svg">
<mask id="mask0" mask-type="alpha" maskUnits="userSpaceOnUse" x="18" y="20" width="114" height="138">
<path d="M88.6372 101.712V111.976H90.9099C113.503 111.976 131.819 129.969 131.819 152.164V157.188H18.1826V152.164C18.1826 129.969 36.4982 111.976 59.0917 111.976H61.3644V101.712C51.5705 97.1416 44.5305 87.8005 43.356 76.7457C40.0464 76.2861 37.5008 73.4921 37.5008 70.114V62.2997C37.5008 58.9809 39.9579 56.2258 43.1826 55.6944V52.2528C43.1826 34.9899 57.4281 20.9956 75.0008 20.9956C92.5735 20.9956 106.819 34.9899 106.819 52.2528V55.6944C110.044 56.2258 112.501 58.9809 112.501 62.2997V70.114C112.501 73.4921 109.955 76.2861 106.646 76.7457C105.471 87.8005 98.4311 97.1416 88.6372 101.712Z" fill="white"/>
</mask>
<g mask="url(#mask0)">
<path d="M88.6372 101.712V111.976H90.9099C113.503 111.976 131.819 129.969 131.819 152.164V157.188H18.1826V152.164C18.1826 129.969 36.4982 111.976 59.0917 111.976H61.3644V101.712C51.5705 97.1416 44.5305 87.8005 43.356 76.7457C40.0464 76.2861 37.5008 73.4921 37.5008 70.114V62.2997C37.5008 58.9809 39.9579 56.2258 43.1826 55.6944V52.2528C43.1826 34.9899 57.4281 20.9956 75.0008 20.9956C92.5735 20.9956 106.819 34.9899 106.819 52.2528V55.6944C110.044 56.2258 112.501 58.9809 112.501 62.2997V70.114C112.501 73.4921 109.955 76.2861 106.646 76.7457C105.471 87.8005 98.4311 97.1416 88.6372 101.712Z" fill="#203240"/>
<path d="M150 20.9956H0V157.188H150V20.9956Z" fill="#FCB58A"/>
<path fill-rule="evenodd" clip-rule="evenodd" d="M106.819 65.0903V77.9281C106.819 95.1909 92.5735 109.185 75.0008 109.185C57.4281 109.185 43.1826 95.1909 43.1826 77.9281V65.0903V73.4628C43.1826 90.7256 57.4281 104.72 75.0008 104.72C92.5735 104.72 106.819 90.7256 106.819 73.4628V65.0903Z" fill="black" fill-opacity="0.1"/>
</g>
<mask id="mask1" mask-type="alpha" maskUnits="userSpaceOnUse" x="18" y="112" width="114" height="46">
<path fill-rule="evenodd" clip-rule="evenodd" d="M94.2965 112.141C115.306 113.832 131.819 131.118 131.819 152.193V157.188H18.1826V152.193C18.1826 130.928 34.9962 113.52 56.2766 112.099C56.2595 112.308 56.2508 112.518 56.2508 112.729C56.2508 119.35 64.7727 124.718 75.2849 124.718C85.7971 124.718 94.319 119.35 94.319 112.729C94.319 112.532 94.3114 112.336 94.2965 112.141Z" fill="white"/>
</mask>
<g mask="url(#mask1)">
<path fill-rule="evenodd" clip-rule="evenodd" d="M94.2965 112.141C115.306 113.832 131.819 131.118 131.819 152.193V157.188H18.1826V152.193C18.1826 130.928 34.9962 113.52 56.2766 112.099C56.2595 112.308 56.2508 112.518 56.2508 112.729C56.2508 119.35 64.7727 124.718 75.2849 124.718C85.7971 124.718 94.319 119.35 94.319 112.729C94.319 112.532 94.3114 112.336 94.2965 112.141Z" fill="#E6E6E6"/>
<path d="M150 95.79H0V157.188H150V95.79Z" fill="#262E33"/>
<g opacity="0.6">
<g opacity="0.6">
<path opacity="0.6" d="M75.2841 128.589C87.7215 128.589 97.804 121.863 97.804 113.566C97.804 105.27 87.7215 98.5439 75.2841 98.5439C62.8467 98.5439 52.7642 105.27 52.7642 113.566C52.7642 121.863 62.8467 128.589 75.2841 128.589Z" fill="black" fill-opacity="0.16"/>
</g>
</g>
</g>
<path fill-rule="evenodd" clip-rule="evenodd" d="M57.2649 112.045C35.5192 112.984 18.1826 130.6 18.1826 152.193H18.1826V157.188H57.5927C55.6603 150.445 54.5463 142.513 54.5463 134.024C54.5463 126.027 55.5349 118.525 57.2649 112.045ZM92.9771 157.188H131.819V152.193C131.819 130.791 114.788 113.296 93.3126 112.074C95.0378 118.547 96.0235 126.039 96.0235 134.024C96.0235 142.513 94.9095 150.445 92.9771 157.188Z" fill="#3A4C5A"/>
<path fill-rule="evenodd" clip-rule="evenodd" d="M102.843 143.792L108.272 139.792C109.092 139.188 110.222 139.197 111.031 139.816L114.775 142.676L102.843 143.792Z" fill="#E6E6E6"/>
<path fill-rule="evenodd" clip-rule="evenodd" d="M57.3871 111.418C55.1144 122.21 56.0614 137.466 60.2281 157.188H51.1372L43.1826 137.094L46.5917 132.071L43.1826 128.722L53.9781 111.977C55.1301 111.625 56.2665 111.438 57.3871 111.418Z" fill="#2F4351"/>
<path fill-rule="evenodd" clip-rule="evenodd" d="M92.6157 111.418C94.8885 122.21 93.9415 137.466 89.7748 157.188H98.8658L106.82 137.094L103.411 132.071L106.82 128.722L96.0248 111.977C94.8728 111.625 93.7364 111.438 92.6157 111.418Z" fill="#2F4351"/>
<path d="M67.0444 84.6266C67.0444 87.6249 70.5434 89.6501 74.999 89.6501C79.4546 89.6501 82.9535 87.6249 82.9535 84.6266C82.9535 84.0101 82.4139 83.5103 81.8172 83.5103C81.0827 83.5103 80.7548 84.0155 80.6808 84.6266C79.9749 86.2664 78.2281 87.2591 74.999 87.4174C71.7699 87.2591 70.0231 86.2664 69.3172 84.6266C69.2432 84.0155 68.9153 83.5103 68.1808 83.5103C67.584 83.5103 67.0444 84.0101 67.0444 84.6266Z" fill="black" fill-opacity="0.6"/>
<path fill-rule="evenodd" clip-rule="evenodd" d="M68.1821 73.4634C68.1821 75.9295 71.2347 77.9287 75.0003 77.9287C78.7659 77.9287 81.8185 75.9295 81.8185 73.4634" fill="black" fill-opacity="0.16"/>
<path d="M60.226 66.7653C62.1088 66.7653 63.6351 65.266 63.6351 63.4164C63.6351 61.5668 62.1088 60.0674 60.226 60.0674C58.3432 60.0674 56.8169 61.5668 56.8169 63.4164C56.8169 65.266 58.3432 66.7653 60.226 66.7653Z" fill="black" fill-opacity="0.6"/>
<path d="M89.7709 66.7653C91.6537 66.7653 93.18 65.266 93.18 63.4164C93.18 61.5668 91.6537 60.0674 89.7709 60.0674C87.8881 60.0674 86.3618 61.5668 86.3618 63.4164C86.3618 65.266 87.8881 66.7653 89.7709 66.7653Z" fill="black" fill-opacity="0.6"/>
<path d="M52.0622 56.2486C54.2866 53.1738 60.3848 51.4497 65.6377 52.7169C66.2472 52.8639 66.8626 52.4977 67.0123 51.899C67.1619 51.3003 66.7892 50.6957 66.1797 50.5487C60.0793 49.077 53.0178 51.0736 50.2097 54.9553C49.8461 55.4578 49.9661 56.1547 50.4777 56.5119C50.9893 56.869 51.6987 56.7512 52.0622 56.2486Z" fill="black" fill-opacity="0.6"/>
<path d="M97.9363 56.2486C95.7119 53.1738 89.6137 51.4497 84.3608 52.7169C83.7513 52.8639 83.1359 52.4977 82.9862 51.899C82.8366 51.3003 83.2093 50.6957 83.8188 50.5487C89.9192 49.077 96.9807 51.0736 99.7888 54.9553C100.152 55.4578 100.032 56.1547 99.5209 56.5119C99.0093 56.869 98.2999 56.7512 97.9363 56.2486Z" fill="black" fill-opacity="0.6"/>
<mask id="mask2" mask-type="alpha" maskUnits="userSpaceOnUse" x="0" y="0" width="150" height="158">
<path d="M150 0.901855H0V157.188H150V0.901855Z" fill="white"/>
</mask>
<g mask="url(#mask2)">
<mask id="mask3" mask-type="alpha" maskUnits="userSpaceOnUse" x="28" y="12" width="97" height="146">
<path fill-rule="evenodd" clip-rule="evenodd" d="M36.956 43.9225C40.159 26.1343 55.9735 12.6235 75.0002 12.6235C96.3385 12.6235 113.637 29.6166 113.637 50.5787V67.7428C114.134 73.2146 114.599 77.048 115.032 79.2428C115.815 83.2079 118.267 81.9002 118.267 87.5404C118.267 93.1805 115.808 95.0756 115.798 100.091C115.787 105.106 124.546 109.094 124.546 115.461C124.546 121.828 120.526 151.872 80.442 151.872C71.8793 151.872 64.5857 149.479 58.5612 144.693C58.9492 148.315 59.3152 152.48 59.6593 157.188H32.9547C33.4845 143.92 28.8159 136.5 28.8159 121.714C28.8159 106.928 36.5642 85.4234 36.3638 80.1613C36.3752 79.8363 36.3869 79.4516 36.3991 79.0071C36.3757 78.4644 36.3638 77.9188 36.3638 77.3705V50.5787C36.3638 48.3594 36.5577 46.1847 36.9297 44.0699C36.9305 44.0069 36.9313 43.9439 36.932 43.8807C36.94 43.8946 36.948 43.9086 36.956 43.9225ZM74.7161 30.4848C57.6141 30.4848 43.7502 44.1042 43.7502 60.9047V73.7424C43.7502 90.5429 57.6141 104.162 74.7161 104.162H75.2843C92.3863 104.162 106.25 90.5429 106.25 73.7424V60.9047C106.25 44.1042 92.3863 30.4848 75.2843 30.4848H74.7161Z" fill="white"/>
</mask>
<g mask="url(#mask3)">
<path fill-rule="evenodd" clip-rule="evenodd" d="M36.956 43.9225C40.159 26.1343 55.9735 12.6235 75.0002 12.6235C96.3385 12.6235 113.637 29.6166 113.637 50.5787V67.7428C114.134 73.2146 114.599 77.048 115.032 79.2428C115.815 83.2079 118.267 81.9002 118.267 87.5404C118.267 93.1805 115.808 95.0756 115.798 100.091C115.787 105.106 124.546 109.094 124.546 115.461C124.546 121.828 120.526 151.872 80.442 151.872C71.8793 151.872 64.5857 149.479 58.5612 144.693C58.9492 148.315 59.3152 152.48 59.6593 157.188H32.9547C33.4845 143.92 28.8159 136.5 28.8159 121.714C28.8159 106.928 36.5642 85.4234 36.3638 80.1613C36.3752 79.8363 36.3869 79.4516 36.3991 79.0071C36.3757 78.4644 36.3638 77.9188 36.3638 77.3705V50.5787C36.3638 48.3594 36.5577 46.1847 36.9297 44.0699C36.9305 44.0069 36.9313 43.9439 36.932 43.8807C36.94 43.8946 36.948 43.9086 36.956 43.9225ZM74.7161 30.4848C57.6141 30.4848 43.7502 44.1042 43.7502 60.9047V73.7424C43.7502 90.5429 57.6141 104.162 74.7161 104.162H75.2843C92.3863 104.162 106.25 90.5429 106.25 73.7424V60.9047C106.25 44.1042 92.3863 30.4848 75.2843 30.4848H74.7161Z" fill="#3B6BAD"/>
<path d="M149.433 0.901855H-0.567383V157.188H149.433V0.901855Z" fill="#030047"/>
<path fill-rule="evenodd" clip-rule="evenodd" d="M40.3834 59.4867C39.9826 57.4143 39.7729 55.2761 39.7729 53.0902C39.7729 34.1319 55.5447 18.7632 75.0002 18.7632C94.4557 18.7632 110.228 34.1319 110.228 53.0902C110.228 55.2761 110.018 57.4143 109.617 59.4867C108.717 41.4708 93.5627 27.1356 75.0002 27.1356C56.4378 27.1356 41.2836 41.4708 40.3834 59.4867Z" fill="white" fill-opacity="0.5"/>
<path opacity="0.9" fill-rule="evenodd" clip-rule="evenodd" d="M106.211 59.3394C106.61 61.2886 106.819 63.3053 106.819 65.3701V78.2078C106.819 95.0083 92.9551 108.628 75.8531 108.628H74.1485C57.0465 108.628 43.1826 95.0083 43.1826 78.2078V65.3701C43.1826 63.3053 43.392 61.2886 43.7911 59.3394C43.7643 59.8578 43.7508 60.3798 43.7508 60.9048V73.7425C43.7508 90.543 57.6147 104.162 74.7167 104.162H75.2849C92.3869 104.162 106.251 90.543 106.251 73.7425V60.9048C106.251 60.3798 106.237 59.8578 106.211 59.3394ZM64.3001 116.44C67.9844 119.222 76.5142 120.186 86.0261 118.539C95.5381 116.891 103.218 113.119 105.711 109.266C105.75 109.407 105.782 109.55 105.808 109.695C106.78 115.106 98.288 121.1 86.8418 123.083C75.3955 125.066 65.3292 122.286 64.3579 116.875C64.3319 116.73 64.3127 116.585 64.3001 116.44H64.3001ZM71.0432 132.585C75.698 135.741 84.8995 135.891 94.3779 132.502C103.856 129.113 110.807 123.187 112.308 117.831C112.389 118.01 112.464 118.192 112.533 118.377C115.105 125.319 107.943 134.253 96.5376 138.331C85.1319 142.409 73.8007 140.088 71.2287 133.146C71.16 132.96 71.0982 132.773 71.0432 132.585H71.0432Z" fill="black" fill-opacity="0.16"/>
</g>
</g>
</svg>
