<svg width="24" height="24" viewBox="0 0 24 24" fill="none" xmlns="http://www.w3.org/2000/svg">
<path fill-rule="evenodd" clip-rule="evenodd" d="M8.92048 21.5024V18.1801C8.92046 17.3351 9.60937 16.6485 10.4629 16.6428H13.5895C14.4471 16.6428 15.1424 17.3311 15.1424 18.1801V21.5128C15.1422 22.2302 15.7206 22.8166 16.4451 22.8334H18.5295C20.6074 22.8334 22.2918 21.1658 22.2918 19.1087V9.65774C22.2807 8.84848 21.8969 8.08854 21.2496 7.5942L14.121 1.90916C12.8722 0.919278 11.0969 0.919278 9.84803 1.90916L2.75069 7.60452C2.10094 8.09686 1.7165 8.85805 1.7085 9.66805V19.1087C1.7085 21.1658 3.39294 22.8334 5.47082 22.8334H7.5552C8.29771 22.8334 8.89963 22.2375 8.89963 21.5024" fill="#4F4F4F"/>
<path d="M8.92048 21.5024V18.1801C8.92046 17.3351 9.60937 16.6485 10.4629 16.6428H13.5895C14.4471 16.6428 15.1424 17.3311 15.1424 18.1801V18.1801V21.5128C15.1422 22.2302 15.7206 22.8166 16.4451 22.8334H18.5295C20.6074 22.8334 22.2918 21.1658 22.2918 19.1087V19.1087V9.65774C22.2807 8.84848 21.8969 8.08854 21.2496 7.5942L14.121 1.90916C12.8722 0.919278 11.0969 0.919278 9.84803 1.90916L2.75069 7.60452C2.10094 8.09686 1.7165 8.85805 1.7085 9.66805V19.1087C1.7085 21.1658 3.39294 22.8334 5.47082 22.8334H7.5552C8.29771 22.8334 8.89963 22.2375 8.89963 21.5024V21.5024" stroke="#4F4F4F" stroke-width="1.5" stroke-linecap="round" stroke-linejoin="round"/>
</svg>
