<svg width="24" height="24" viewBox="0 0 24 24" fill="none" xmlns="http://www.w3.org/2000/svg">
<path d="M8.92048 21.5022V18.1799C8.92046 17.3349 9.60937 16.6482 10.4629 16.6426H13.5895C14.4471 16.6426 15.1424 17.3309 15.1424 18.1799V18.1799V21.5125C15.1422 22.23 15.7206 22.8164 16.4451 22.8332H18.5295C20.6074 22.8332 22.2918 21.1656 22.2918 19.1085V19.1085V9.65749C22.2807 8.84823 21.8969 8.0883 21.2496 7.59396L14.121 1.90891C12.8722 0.919034 11.0969 0.919034 9.84803 1.90891L2.75069 7.60427C2.10094 8.09661 1.7165 8.85781 1.7085 9.66781V19.1085C1.7085 21.1656 3.39294 22.8332 5.47082 22.8332H7.5552C8.29771 22.8332 8.89963 22.2373 8.89963 21.5022V21.5022" stroke="#4F4F4F" stroke-width="1.5" stroke-linecap="round" stroke-linejoin="round"/>
</svg>
