<svg width="54" height="60" viewBox="0 0 54 60" fill="none" xmlns="http://www.w3.org/2000/svg">
<path d="M25.533 59.9936H25.5907C26.3374 60.0434 27.0741 59.8008 27.6451 59.3171C28.216 58.8333 28.5764 58.1465 28.6499 57.4018L29.7327 45.4463L25.3051 45.2784C22.7976 45.1834 23.4814 49.4416 23.3416 51.2204L22.8948 56.9193C22.8619 57.2952 22.9045 57.6739 23.02 58.0332C23.1354 58.3924 23.3215 58.725 23.5672 59.0114C23.813 59.2978 24.1135 59.5322 24.451 59.7008C24.7886 59.8695 25.1564 59.969 25.533 59.9936Z" fill="#FCB58A"/>
<path d="M49.5069 30.8049C49.5829 36.6633 48.0054 42.7694 43.995 47.0405C39.7079 51.6049 33.2234 53.4992 26.9691 53.8191C21.7056 54.0889 16.1032 53.2568 12.0092 49.934C5.52162 44.666 4.84688 35.1823 4.69339 26.8255C4.60677 22.1388 4.59234 17.1702 7.00713 13.1529C9.53362 8.94786 14.2872 6.58322 19.0218 5.30136C23.7132 3.91244 28.6798 3.73364 33.4589 4.78162C45.7867 7.82709 49.3549 19.3563 49.5061 30.8049" fill="#FFBB8D"/>
<path d="M44.1159 40.3105C45.1934 37.9596 46.5086 34.5174 45.8704 31.9188C45.3977 29.9918 43.8028 28.5595 42.1798 27.419C38.7375 25.0026 34.8302 23.3289 30.7061 22.5043C28.2488 22.0149 25.7352 21.8318 23.29 21.2839C20.8077 20.84 18.5027 19.6997 16.6436 17.9961C7.20328 22.7634 5.47388 35.0455 11.3399 43.2838C17.1907 51.5038 30.3239 53.4354 38.4094 47.387C40.8694 45.5384 42.8308 43.1068 44.1166 40.3113" fill="#FCB58A"/>
<path d="M29.7578 29.2312C29.3594 29.275 28.9829 29.4357 28.6757 29.6932C28.3287 29.9655 28.0572 30.3222 27.8871 30.7292C27.717 31.1362 27.6539 31.58 27.7039 32.0183C27.767 32.4551 27.9602 32.8627 28.2584 33.188C28.5566 33.5133 28.9459 33.7412 29.3756 33.8419C32.5031 34.4635 32.5426 29.0047 29.7608 29.2289" fill="#1F111E"/>
<path d="M10.2155 27.5701C9.81704 27.6143 9.44059 27.7753 9.13346 28.0329C8.78663 28.3054 8.51522 28.6621 8.345 29.069C8.17478 29.476 8.11139 29.9197 8.16086 30.358C8.22381 30.7948 8.41699 31.2025 8.71521 31.5278C9.01342 31.8532 9.4028 32.081 9.83251 32.1816C12.96 32.804 12.9996 27.3445 10.2178 27.5686" fill="#1F111E"/>
<path d="M8.68496 22.9936C8.0266 23.1617 7.4514 23.5626 7.06574 24.122C6.96637 24.2736 6.92507 24.456 6.94948 24.6357C7.02546 24.9837 7.43046 25.1341 7.78074 25.1979C8.9965 25.4259 12.9583 25.5634 13.3975 23.8956C13.9294 21.8835 9.46306 22.73 8.68649 22.9936" fill="#1F111E"/>
<path d="M34.0251 28.6833C34.6644 28.916 35.3662 28.909 36.0007 28.6636C36.1682 28.5945 36.3052 28.4675 36.3867 28.3057C36.5227 27.9774 36.2697 27.6218 36.0167 27.3718C35.1383 26.5003 31.9469 24.1516 30.6438 25.2807C29.0717 26.6439 33.2357 28.4622 34.0267 28.6826" fill="#1F111E"/>
<path d="M17.7067 43.2428C19.2499 45.7321 22.8091 45.191 24.6775 43.4244C24.9197 43.2178 25.1078 42.9551 25.2254 42.6592C25.2816 42.5105 25.2956 42.3492 25.2657 42.1931C25.2357 42.0369 25.1631 41.8921 25.0559 41.7748C24.9569 41.6911 24.8411 41.6296 24.7163 41.5945C24.5915 41.5593 24.4607 41.5514 24.3326 41.5711C24.0772 41.6129 23.8275 41.6843 23.5887 41.7839C22.519 42.2125 21.3687 42.4028 20.218 42.3416C19.7438 42.2839 19.2735 42.0741 18.7978 41.9799C17.6824 41.7588 16.9818 42.0719 17.7075 43.242" fill="#FFFBF8"/>
<path d="M49.8504 11.4326C47.8057 8.22037 44.9224 5.50655 41.4507 3.52668C37.979 1.5468 34.0239 0.360705 29.9286 0.0713252C26.5136 -0.22055 23.078 0.387386 20.0387 1.82137C18.5324 2.54893 17.2284 3.57453 16.2245 4.82126C15.2206 6.06799 14.5428 7.50347 14.242 9.02005C13.6559 12.7549 16.0138 16.5589 19.5035 18.6409C23.6954 21.1431 29.0009 21.3683 33.851 22.5612C40.6907 24.2428 46.7372 28.5457 49.5262 34.4967C54.2412 27.7586 54.1569 18.3651 49.8504 11.4354" fill="#1F111E"/>
<path d="M7.80943 6.82653C4.56214 8.74186 2.44632 12.0704 1.25873 15.5498C-0.448647 20.6365 -0.418344 26.1147 1.34519 31.1837C1.6197 32.2328 2.05167 33.2379 2.62756 34.1674C3.27826 35.0565 4.15955 35.7665 5.18399 36.2271C5.2288 36.2512 5.27905 36.2644 5.33037 36.2657C5.37912 36.2581 5.4238 36.235 5.45733 36.2001C5.49086 36.1652 5.51131 36.1206 5.5154 36.0733C5.52079 35.978 5.50449 35.8828 5.46763 35.7942C5.22204 35.0402 5.0758 34.2596 5.03233 33.4707C5.0349 32.7197 5.11235 31.9707 5.26362 31.2339C5.4972 29.5066 5.69741 27.7706 6.09782 26.0695C6.68479 23.5879 7.75938 21.1201 9.71898 19.4081C11.2182 18.2568 12.8693 17.301 14.6294 16.5657C17.7166 15.0483 22.3358 11.2038 19.4138 7.53566C16.8847 4.3602 10.8906 5.00594 7.81096 6.82361" fill="#1F111E"/>
<path d="M17.4781 31.0853C17.7074 32.22 17.7123 33.3886 17.4925 34.5251C16.7931 34.5448 16.1064 34.7162 15.4797 35.0274C15.3438 35.0792 15.2194 35.1572 15.1136 35.2571C15.0079 35.3569 14.9229 35.4767 14.8635 35.6095C14.6872 36.1581 15.3353 36.6459 15.9105 36.6732C16.4817 36.6082 17.056 36.5735 17.6308 36.5691" stroke="#FFBB8D" stroke-width="3" stroke-linecap="round" stroke-linejoin="round"/>
<path d="M45.0239 30.5214C45.7314 29.5471 46.5984 28.6993 47.5884 28.014C48.0865 27.6753 48.6555 27.455 49.2518 27.3699C49.8481 27.2849 50.456 27.3372 51.029 27.5231C51.7823 27.8815 52.3869 28.4917 52.7384 29.2483C53.0899 30.0049 53.1663 30.8604 52.9544 31.6673C52.7127 32.4657 52.2887 33.197 51.7161 33.8036C51.1434 34.4102 50.4376 34.8754 49.6544 35.1626C48.081 35.7237 46.4027 35.9289 44.7405 35.7636" fill="#FCB58A"/>
<path d="M48.498 29.3413C47.6032 29.7736 46.9053 30.5286 46.5444 31.4545C46.2932 31.9166 46.2125 32.4524 46.3164 32.9681C46.3966 33.242 46.563 33.4827 46.7909 33.6546C47.0187 33.8264 47.296 33.9202 47.5814 33.922C47.8668 33.9237 48.1451 33.8335 48.3751 33.6645C48.6051 33.4955 48.7745 33.2569 48.8581 32.9841C48.9353 32.539 48.9509 32.0854 48.9045 31.6361C48.8849 31.4109 48.9322 31.1849 49.0403 30.9864C49.1484 30.7879 49.3126 30.6256 49.5123 30.5199C49.7408 30.4636 49.9789 30.4595 50.2092 30.5077C51.045 30.6027 51.3079 30.0579 50.6453 29.5298C50.3304 29.3226 49.969 29.197 49.5935 29.1641C49.218 29.1312 48.8403 29.1921 48.4942 29.3413" fill="#FFBB8D"/>
</svg>
