<svg width="47" height="46" viewBox="0 0 47 46" fill="none" xmlns="http://www.w3.org/2000/svg">
<path d="M33.7404 0.935303H0.878906V44.8391H33.7404V0.935303Z" fill="white"/>
<path d="M39.1661 8.52859L42.7005 0.935791L46.2348 8.52859V42.6465C46.2348 43.8576 45.2531 44.8395 44.0418 44.8395H41.359C40.1479 44.8395 39.166 43.8577 39.166 42.6465V8.52859H39.1661Z" fill="#0A7E89"/>
<path d="M46.2347 39.0492V42.6463C46.2347 43.8573 45.2526 44.8394 44.0416 44.8394H41.3585C40.1474 44.8394 39.1665 43.8573 39.1665 42.6463V39.0492H46.2347Z" fill="#D46795"/>
<path d="M44.0978 8.52844H42.7827V39.0489H44.0978V8.52844Z" fill="white"/>
<path d="M39.166 42.6465C39.166 43.8577 40.1478 44.8396 41.359 44.8396H42.0278C41.4205 44.8396 40.9281 43.8578 40.9281 42.6465V8.52859L42.7004 0.935791L39.166 8.52859V42.6465Z" fill="#0A7E89"/>
<path d="M46.2347 8.52874H39.1665L42.7 0.935669L46.2347 8.52874Z" fill="#D46795"/>
<path d="M42.0282 44.8395H41.3585C40.1474 44.8395 39.1665 43.8575 39.1665 42.6464V39.0493H40.9278V42.6464C40.9278 43.8575 41.421 44.8395 42.0282 44.8395Z" fill="#D46795"/>
<path d="M40.9278 8.52874H39.1665L42.7 0.935669L40.9278 8.52874Z" fill="#D46795"/>
<path d="M33.684 0.11377H0.822041C0.368014 0.11377 0 0.481875 0 0.935811V5.51308C0 5.96701 0.368014 6.33512 0.822041 6.33512C1.27607 6.33512 1.64408 5.96711 1.64408 5.51308V1.75785H32.8622V44.0175H1.64399V8.25312C1.64399 7.79919 1.27598 7.43108 0.821949 7.43108C0.367922 7.43108 0 7.7991 0 8.25312V44.8395C0 45.2934 0.368014 45.6615 0.822041 45.6615H33.6841C34.1381 45.6615 34.5062 45.2935 34.5062 44.8395V0.935811C34.5061 0.481875 34.1382 0.11377 33.684 0.11377Z" fill="#434C54"/>
<path d="M46.1781 31.3228C46.632 31.3228 47.0001 30.9548 47.0001 30.5007V8.52861C47.0001 8.40872 46.9739 8.2903 46.9233 8.18171L43.3887 0.58891C43.2538 0.299107 42.9631 0.11377 42.6435 0.11377C42.3239 0.11377 42.0332 0.299107 41.8983 0.58891L38.3639 8.18171C38.3135 8.2903 38.2871 8.40881 38.2871 8.52861V42.6465C38.2871 44.3089 39.6396 45.6614 41.3021 45.6614H43.985C45.6475 45.6614 47 44.309 47 42.6465V33.2407C47 32.7868 46.632 32.4186 46.178 32.4186C45.7239 32.4186 45.3559 32.7867 45.3559 33.2407V38.2271V39.8711V42.6465C45.3559 43.4024 44.741 44.0175 43.9849 44.0175H41.302C40.546 44.0175 39.931 43.4025 39.931 42.6465V39.8711V38.2271V8.69301L40.3983 7.70656L42.6434 2.88356L44.8885 7.70656L45.3558 8.69301V30.5008C45.3561 30.9548 45.7241 31.3228 46.1781 31.3228Z" fill="#434C54"/>
<path d="M26.0478 6.6637H8.45778C8.00385 6.6637 7.63574 7.03171 7.63574 7.48574C7.63574 7.93967 8.00376 8.30778 8.45778 8.30778H26.0478C26.5017 8.30778 26.8699 7.93976 26.8699 7.48574C26.8699 7.03171 26.5017 6.6637 26.0478 6.6637Z" fill="#D46795"/>
<path d="M28.752 15.1172H25.4094C24.9555 15.1172 24.5874 15.4852 24.5874 15.9392C24.5874 16.3933 24.9554 16.7613 25.4094 16.7613H28.752C29.206 16.7613 29.5741 16.3933 29.5741 15.9392C29.5741 15.4852 29.206 15.1172 28.752 15.1172Z" fill="#D46795"/>
<path d="M4.93164 15.9392C4.93164 16.3932 5.29965 16.7613 5.75368 16.7613H22.6696C23.1236 16.7613 23.4917 16.3933 23.4917 15.9392C23.4917 15.4852 23.1237 15.1172 22.6696 15.1172H5.75368C5.29956 15.1172 4.93164 15.4852 4.93164 15.9392Z" fill="#D46795"/>
<path d="M5.75368 25.2749H28.7523C29.2062 25.2749 29.5743 24.9069 29.5743 24.4529C29.5743 23.9989 29.2063 23.6309 28.7523 23.6309H5.75368C5.29975 23.6309 4.93164 23.9989 4.93164 24.4529C4.93164 24.9069 5.29956 25.2749 5.75368 25.2749Z" fill="#D46795"/>
<path d="M28.7521 19.3741H12.4226C11.9687 19.3741 11.6006 19.7422 11.6006 20.1962C11.6006 20.6502 11.9686 21.0182 12.4226 21.0182H28.7521C29.206 21.0182 29.5741 20.6502 29.5741 20.1962C29.5741 19.7422 29.2061 19.3741 28.7521 19.3741Z" fill="#D46795"/>
<path d="M5.75368 21.0181H9.68277C10.1367 21.0181 10.5048 20.6501 10.5048 20.1961C10.5048 19.742 10.1368 19.374 9.68277 19.374H5.75368C5.29975 19.374 4.93164 19.742 4.93164 20.1961C4.93164 20.6501 5.29956 21.0181 5.75368 21.0181Z" fill="#D46795"/>
<path d="M5.75368 38.0454H28.7523C29.2062 38.0454 29.5743 37.6774 29.5743 37.2234C29.5743 36.7694 29.2063 36.4014 28.7523 36.4014H5.75368C5.29975 36.4014 4.93164 36.7694 4.93164 37.2234C4.93164 37.6774 5.29956 38.0454 5.75368 38.0454Z" fill="#D46795"/>
<path d="M28.752 32.1447H23.2722C22.8183 32.1447 22.4502 32.5127 22.4502 32.9667C22.4502 33.4207 22.8182 33.7887 23.2722 33.7887H28.752C29.2059 33.7887 29.574 33.4207 29.574 32.9667C29.574 32.5127 29.206 32.1447 28.752 32.1447Z" fill="#D46795"/>
<path d="M5.75368 33.7887H20.5325C20.9865 33.7887 21.3546 33.4207 21.3546 32.9667C21.3546 32.5127 20.9865 32.1447 20.5325 32.1447H5.75368C5.29975 32.1447 4.93164 32.5127 4.93164 32.9667C4.93164 33.4207 5.29956 33.7887 5.75368 33.7887Z" fill="#D46795"/>
</svg>
