<svg width="30" height="24" viewBox="0 0 30 24" fill="none" xmlns="http://www.w3.org/2000/svg">
<path d="M14.9989 0.75C15.5596 0.75 16.051 1.00133 16.2946 1.41836C16.2947 1.41852 16.2948 1.41867 16.2949 1.41883L21.1476 9.75938L21.4862 10.3413L22.1012 10.0673L27.1397 7.82192C27.1397 7.8219 27.1398 7.82188 27.1398 7.82186C28.2347 7.3354 29.4437 8.28194 29.2233 9.47943C29.2232 9.47985 29.2232 9.48027 29.2231 9.48069L26.8749 22.0217C26.8749 22.0219 26.8749 22.022 26.8749 22.0221C26.7403 22.7348 26.1187 23.25 25.3983 23.25H4.59959C3.88042 23.25 3.2609 22.7361 3.12603 22.0222C3.126 22.0221 3.12597 22.0219 3.12594 22.0217L0.777508 9.47904C0.777504 9.47902 0.7775 9.479 0.777496 9.47898C0.554155 8.28533 1.75362 7.33319 2.85832 7.82197C2.85856 7.82207 2.85879 7.82217 2.85903 7.82228L7.89673 10.0673L8.5117 10.3413L8.85028 9.75938L13.703 1.41883C13.9466 1.00151 14.438 0.75 14.9989 0.75Z" stroke="black" stroke-opacity="0.5" stroke-width="1.5"/>
</svg>
