<svg width="18" height="17" viewBox="0 0 18 17" fill="none" xmlns="http://www.w3.org/2000/svg">
<path fill-rule="evenodd" clip-rule="evenodd" d="M8.32933 1.87774e-05C8.10757 0.00279733 7.86148 0.102832 7.63702 0.333466L3.67788 4.93504H0.692308C0.310998 4.93504 0 5.25459 0 5.64639V11.3372C0 11.729 0.310998 12.0486 0.692308 12.0486H3.67788L7.61538 16.6279C8.30769 17.3393 9 16.9753 9 16.0055V0.866982C9 0.3029 8.69982 -0.00275977 8.32933 1.87774e-05ZM13.3486 1.42273C13.0457 1.47552 12.8131 1.72839 12.7779 2.04238C12.7455 2.35638 12.9132 2.65648 13.1971 2.77875C15.2308 3.83188 16.6154 5.9854 16.6154 8.49181C16.6154 10.9982 15.2308 13.1517 13.1971 14.2049C12.9429 14.2938 12.7644 14.5272 12.7347 14.7995C12.7049 15.0746 12.832 15.3414 13.0619 15.4859C13.2891 15.6276 13.5784 15.622 13.8029 15.472C16.2882 14.1826 18 11.5429 18 8.49181C18 5.44077 16.2882 2.80098 13.8029 1.51165C13.6839 1.44218 13.5487 1.41161 13.4135 1.42273C13.3918 1.42273 13.3702 1.42273 13.3486 1.42273ZM11.7043 4.17923C11.3987 4.20146 11.1445 4.42931 11.0796 4.73775C11.0147 5.04619 11.1526 5.36296 11.4231 5.51302C12.4913 6.1938 13.1538 7.27473 13.1538 8.49181C13.1538 9.71723 12.4805 10.812 11.4014 11.4928C11.1716 11.6179 11.0282 11.8652 11.0309 12.1319C11.0337 12.3987 11.1824 12.6405 11.4177 12.7599C11.6502 12.8794 11.9288 12.8516 12.137 12.6932C13.5703 11.7902 14.5385 10.2535 14.5385 8.49181C14.5385 6.74121 13.5784 5.19624 12.1587 4.29037C12.0424 4.21535 11.9072 4.17645 11.7692 4.17923C11.7476 4.17923 11.726 4.17923 11.7043 4.17923Z" fill="white"/>
</svg>
