<svg xmlns="http://www.w3.org/2000/svg" width="310.625" height="192.716" viewBox="0 0 310.625 192.716">
  <g id="Group_1" data-name="Group 1" transform="translate(18 99)">
    <g id="Group_11544" data-name="Group 11544" transform="translate(-18 -44.987)">
      <path id="Path_1" data-name="Path 1" d="M195.886,31.045a4.13,4.13,0,0,1,8.033-1.863c4.259-4.793,12.243-4.848,17.584-1.3S229.821,37.7,231.048,44c2.2,11.292-.783,23.671-8.555,32.152s-20.344,12.535-31.407,9.378c-4.673-1.334-9.573-4.821-9.436-9.679a18.341,18.341,0,1,0,14.9-32.484" fill="#914a4a"/>
      <path id="Path_2" data-name="Path 2" d="M135.083,31.045a4.13,4.13,0,0,0-8.033-1.863c-4.259-4.793-12.243-4.848-17.584-1.3S101.148,37.7,99.921,44c-2.2,11.292.783,23.671,8.555,32.152s20.344,12.535,31.407,9.378c4.673-1.334,9.573-4.821,9.436-9.679a18.341,18.341,0,1,1-14.9-32.484" fill="#914a4a"/>
      <path id="Path_3" data-name="Path 3" d="M143.955,138.691c-.267-6.327-.8-22.182.125-30.856,3.6-18.776,5.967-23.315,17.111-26.184,9.963-2.565,20.881-1.891,24.865,20.9a353.053,353.053,0,0,1-.275,36.14Z" fill="#003f53"/>
      <path id="Path_4" data-name="Path 4" d="M133.554,75.821c.62,0,.52,6.308.9,6.571s-.02-8.915,1.653-8.58c.682.137-.307,8.392-.133,8.65s1.907-9.992,3.5-9.328c.568.237-1.811,9.617-1.49,9.559s2.045-7.465,3.415-6.982c.821.29-1.166,6.916-1.732,8.746a2.365,2.365,0,0,0,1.376-.877c-.134-1.963,1.457-3.083,2.093-2.922s-.129,2.342-.744,4.44-4.6,3.26-4.6,3.26l-.446,1.855-3.826-.425s-.011-1.753-.1-2.3-.8-3.658-.862-4.116c-.179-1.354-.221-7.554.994-7.552" fill="#ffbb8d"/>
      <path id="Path_5" data-name="Path 5" d="M134.852,122.024c6.523-3.328,27.907-28.073,31.188-37.589s-27.311,4.537-31.313,20.623.125,16.967.125,16.967" fill="#003f53"/>
      <path id="Path_6" data-name="Path 6" d="M142.6,100.294c-2.346,7.02-1.444,13.376-4.753,19.9a29.645,29.645,0,0,1-2.992,1.825s-2.578-.573-.124-16.966c1.717-11.471,11.876-14.778,17.535-17.726-2.406,1.739-7.3,7.271-9.666,12.964" fill="#002e46"/>
      <path id="Path_7" data-name="Path 7" d="M132.364,88.77c.529-.223,5.2.586,5.593,1.1.231.308,0,1.659-.224,2.707.14.128.282.261.424.407,1.839,1.884.978,5.573.942,8.026a65.19,65.19,0,0,1-2.036,16.835c-.679,2.4-1.589,4.089-2.808,4.49a7.253,7.253,0,0,1-5.5-.683c-6.846-3.548-4.188-11.75-2.745-17.257.74-2.827,2.838-9.751,6.07-12.308-.042-1.4-.031-3.187.289-3.322" fill="#003f53"/>
      <path id="Path_8" data-name="Path 8" d="M124.992,117.347a12.524,12.524,0,0,1-.5-6.487,38.771,38.771,0,0,1,7.561-18.986,8.485,8.485,0,0,1,.281-3.058,8.68,8.68,0,0,1,5.6.948,8.8,8.8,0,0,0-4.533-.453.65.65,0,0,0-.531.613c-.024.494-.056,1.179-.047,1.724a.711.711,0,0,0,.771.7,7.421,7.421,0,0,1,2.986.153,4.634,4.634,0,0,0-4.409,2.153,21.634,21.634,0,0,0-1.825,4.758c-1.315,5.372-2.639,10.922-1.375,16.38a11.389,11.389,0,0,0,1.68,3.812,5.621,5.621,0,0,0,3.269,2.592c-3.765.2-7.434-1.383-8.924-4.847" fill="#002e46"/>
      <path id="Path_9" data-name="Path 9" d="M148.668,94.568c.483-.388,4.365,4.583,4.825,4.551s-5.612-6.927-4.1-7.716c.617-.322,5.03,6.724,5.326,6.816s-4.789-8.975-3.129-9.459c.59-.173,4.628,8.622,4.841,8.375s-3.1-7.1-1.725-7.579c.821-.29,3.434,6.116,4.143,7.9a2.372,2.372,0,0,0,.521-1.547c-1.337-1.444-.8-3.314-.205-3.588s1.37,1.9,2.209,3.923-1.534,5.426-1.534,5.426l.818,1.724-3.245,2.072s-1.109-1.357-1.521-1.728-2.921-2.344-3.255-2.662c-.989-.942-4.914-5.741-3.967-6.5" fill="#ffbb8d"/>
      <path id="Path_10" data-name="Path 10" d="M178.684,129.715c1.313-.658,1.564-6.806,1.719-8.036.46-3.655,1.295-7.485.984-11.147A33.26,33.26,0,0,0,177.2,97.04c-1.059-1.872-5.376-8.868-7.672-6.941-1.022.857-1.506,4.293-1.858,5.553a46.459,46.459,0,0,0-1.448,7.19c-.533,4.618-.272,9.475,1.712,13.746,6.97,15,10.734,13.135,10.749,13.128" fill="#003f53"/>
      <path id="Path_11" data-name="Path 11" d="M171.071,107.939c2.582,6.937,7.273,11.319,8.8,18.477a29.732,29.732,0,0,1-1.183,3.3s-2.367,1.173-10.749-13.128c-5.865-10.007-.034-18.959,2.521-24.807-.781,2.864-1.12,10.246.615,16.159" fill="#002e46"/>
      <path id="Path_12" data-name="Path 12" d="M155.871,105.394c.272-.506,4.418-2.811,5.047-2.652.373.1,1.042,1.291,1.525,2.248.19.012.384.027.587.051,2.615.312,4.26,3.724,5.772,5.657a65.18,65.18,0,0,1,8.984,14.381c.976,2.292,1.331,4.18.634,5.258a7.258,7.258,0,0,1-4.714,2.924c-7.557,1.536-10.637-6.516-12.972-11.709-1.2-2.665-3.913-9.371-3-13.391-.909-1.061-2.024-2.462-1.86-2.767" fill="#003f53"/>
      <path id="Path_13" data-name="Path 13" d="M168.073,132.264a12.534,12.534,0,0,1-4.465-4.732,38.785,38.785,0,0,1-6.035-19.525,8.464,8.464,0,0,1-1.7-2.557,8.681,8.681,0,0,1,4.954-2.778,8.8,8.8,0,0,0-3.812,2.493.653.653,0,0,0-.028.81c.292.4.7.953,1.046,1.372a.7.7,0,0,0,.227.181.715.715,0,0,0,.279.075.716.716,0,0,0,.533-.2,7.416,7.416,0,0,1,2.42-1.76,4.634,4.634,0,0,0-2.081,4.444,21.718,21.718,0,0,0,1.566,4.85c2.35,5.006,4.8,10.158,9.213,13.613a11.416,11.416,0,0,0,3.7,1.912,5.613,5.613,0,0,0,4.172-.035c-2.8,2.522-6.655,3.592-9.989,1.83" fill="#002e46"/>
      <path id="Path_14" data-name="Path 14" d="M159.674,87.209c0-1.582,5.306-2.879,5.306-2.879S170.3,85.6,170.3,87.181s-2.371,2.871-5.306,2.879S159.678,88.791,159.674,87.209Z" fill="#ffbb8d"/>
      <path id="Path_15" data-name="Path 15" d="M164.892,88.625h.076a3.792,3.792,0,0,0,3.759-3.7l.246-15.8-5.826.215c-3.3.122-1.984,5.643-1.993,7.991l-.026,7.519a3.729,3.729,0,0,0,3.764,3.775Z" fill="#ffbb8d"/>
      <path id="Path_16" data-name="Path 16" d="M136.568,46.394a4.184,4.184,0,0,0-5.19-1.514A4.658,4.658,0,0,0,128.9,49.8a5.261,5.261,0,0,0,3.869,4.048,6.059,6.059,0,0,0,5.481-1.492" fill="#ffbb8d"/>
      <path id="Path_17" data-name="Path 17" d="M192.39,45.633a4.184,4.184,0,0,1,4.907-2.27,4.661,4.661,0,0,1,3.187,4.492,5.267,5.267,0,0,1-3.224,4.58,6.061,6.061,0,0,1-5.642-.659" fill="#ffbb8d"/>
      <path id="Path_18" data-name="Path 18" d="M193.487,47.965c.678,7.681-.794,15.849-5.638,21.849-5.177,6.413-13.5,9.534-21.677,10.57-6.882.872-14.318.331-20.014-3.628-9.033-6.276-10.85-18.656-11.874-29.607-.574-6.142-1.081-12.661,1.692-18.171,2.9-5.767,8.908-9.339,15-11.486a38.147,38.147,0,0,1,18.9-2.1C186.345,18.18,192.162,32.955,193.487,47.965Z" fill="#ffa277"/>
      <path id="Path_19" data-name="Path 19" d="M187.407,60.993a22.916,22.916,0,0,0,1.62-7.9c.039-2.374.39-4.667-.927-6.8a11.42,11.42,0,0,0-4.929-4.094,60.207,60.207,0,0,0-6.093-2.244A52.307,52.307,0,0,1,156.97,27.093c-.315-.315-4.912,3.985-5.713,4.406-2.832,1.491-5.712,2.7-8.275,4.666a16.343,16.343,0,0,0-6.341,9.24,24.337,24.337,0,0,0,.111,8.024,45.434,45.434,0,0,0,2.206,10.638,24.071,24.071,0,0,0,15.289,14.1A26.372,26.372,0,0,0,175.012,75.6,30.066,30.066,0,0,0,187.407,60.993Z" fill="#ffbb8d"/>
      <path id="Path_20" data-name="Path 20" d="M136.962,45.809a.6.6,0,0,0-.117.582.429.429,0,0,0,.5.16,1.406,1.406,0,0,0,.476-.311,7.714,7.714,0,0,1,4.9-1.812c.525,0,1.178-.024,1.4-.5a.881.881,0,0,0-.4-1.042c-2.229-1.433-5.624,1.116-6.761,2.923" fill="#914a4a"/>
      <path id="Path_21" data-name="Path 21" d="M177.786,46.688a.609.609,0,0,1,.129.58.431.431,0,0,1-.5.171,1.4,1.4,0,0,1-.481-.3A7.718,7.718,0,0,0,172,45.43c-.525.009-1.178,0-1.408-.47a.88.88,0,0,1,.377-1.05c2.2-1.479,5.646,1,6.82,2.78" fill="#914a4a"/>
      <path id="Path_22" data-name="Path 22" d="M170.356,51.313a2.676,2.676,0,0,0-1.375.713,3.408,3.408,0,0,0-1.048,3.148A2.889,2.889,0,0,0,170.3,57.4c4.165.509,3.68-6.66.052-6.092" fill="#1f111e"/>
      <path id="Path_23" data-name="Path 23" d="M140.786,52.139a2.674,2.674,0,0,0-1.375.713A3.406,3.406,0,0,0,138.363,56a2.889,2.889,0,0,0,2.37,2.231c4.165.509,3.681-6.66.052-6.092" fill="#1f111e"/>
      <path id="Path_24" data-name="Path 24" d="M150.778,67.368c1.786,3.416,6.509,3.049,9.132.909a2.567,2.567,0,0,0,.793-.951,1.137,1.137,0,0,0-.137-1.177,1.194,1.194,0,0,0-.93-.336,4.312,4.312,0,0,0-1,.207,10.434,10.434,0,0,1-4.478.407c-.616-.121-1.214-.442-1.829-.612-1.443-.4-2.393-.054-1.554,1.552" fill="#fffbf8"/>
      <path id="Path_25" data-name="Path 25" d="M187.846,41.622a22.607,22.607,0,0,0-8.879-4.226c-7.158-1.638-14.356-4.237-19.224-10.131-4.21-5.1-5.752-12.807-2.283-18.434A15.182,15.182,0,0,1,167.6,2.222a23.37,23.37,0,0,1,12.239,1.311c18.619,6.8,28.869,30.6,14.55,46.477.985-1.093-5.182-7.27-6-7.95-.18-.15-.361-.3-.545-.44" fill="#914a4a"/>
      <path id="Path_26" data-name="Path 26" d="M160.662,19.707a65.155,65.155,0,0,1-14.066,10.1,22.248,22.248,0,0,0-7.08,5.2c-4.344,5.23-4.039,12.773-3.508,19.551-5.485-10.47-5.96-24.131.183-34.544a31.784,31.784,0,0,1,18.438-14.25c3.019-.862,6.649-1.129,8.933,1.026,3.979,3.756,1.419,8.6-2.9,12.916" fill="#914a4a"/>
      <path id="Path_27" data-name="Path 27" d="M154.347,48.9q.325,3.833.652,7.668a2.7,2.7,0,1,0-.561,4.361" fill="none" stroke="#ffa277" stroke-linecap="round" stroke-linejoin="round" stroke-width="3"/>
      <path id="Path_28" data-name="Path 28" d="M110.143,62.379c-.593-.18-2.343,5.88-2.782,6.02s2.627-8.519.93-8.687c-.692-.069-2.163,8.114-2.4,8.309s1.1-10.113-.621-9.944c-.612.06-1.082,9.726-1.371,9.577s.228-7.737-1.224-7.676c-.87.037-.908,6.954-.9,8.87a2.37,2.37,0,0,1-1.06-1.242c.7-1.838-.491-3.374-1.147-3.406s-.562,2.277-.588,4.463,3.445,4.464,3.445,4.464l-.116,1.9,3.783.714s.523-1.673.768-2.17,1.837-3.263,2.029-3.683c.567-1.243,2.421-7.158,1.259-7.512" fill="#ffbb8d"/>
      <path id="Path_29" data-name="Path 29" d="M107.492,75.109c-.44-.368-5.149-.963-5.672-.58-.31.227-.485,1.587-.577,2.654-.172.081-.346.167-.525.265-2.31,1.263-2.567,5.043-3.249,7.4a65.163,65.163,0,0,0-2.979,16.694c-.052,2.49.322,4.375,1.371,5.115a7.246,7.246,0,0,0,5.463.957c7.585-1.389,7.443-10.01,7.675-15.7.119-2.92.139-10.155-2.2-13.545.448-1.323.962-3.039.7-3.261" fill="#ff6262"/>
      <path id="Path_30" data-name="Path 30" d="M68.071,82.622c1.573.643,29.492,11.33,32.922,13.27s2.479,12.841-2.984,11.883-21.79-5.123-21.79-5.123" fill="#ff6262"/>
      <path id="Path_31" data-name="Path 31" d="M82.442,138.691c.267-6.327.8-22.182-.124-30.856-3.6-18.776-5.967-23.315-17.111-26.184-9.963-2.565-20.882-1.891-24.865,20.9a353.167,353.167,0,0,0,.274,36.14Z" fill="#ff6262"/>
      <path id="Path_32" data-name="Path 32" d="M66.969,112.285c-.207-.584-6.123,1.6-6.5,1.335s8.415-2.943,7.544-4.408c-.356-.6-7.814,3.076-8.114,3s8.791-5.118,7.635-6.4c-.412-.456-8.469,4.9-8.521,4.58s6.362-4.409,5.451-5.54c-.546-.678-6.137,3.4-7.674,4.539a2.365,2.365,0,0,1,.37-1.59c1.9-.526,2.424-2.4,2.061-2.945s-2.166.9-3.941,2.177-1.547,5.422-1.547,5.422l-1.6,1.037L53.8,116.96s1.657-.572,2.2-.67,3.717-.458,4.169-.553c1.337-.282,7.2-2.3,6.793-3.446" fill="#ffbb8d"/>
      <path id="Path_33" data-name="Path 33" d="M22.959,126.406c.972-7.259,17.211-35.646,25.1-41.9s4.791,27.267-9.052,36.385-16.045,5.517-16.045,5.517" fill="#ff6262"/>
      <path id="Path_34" data-name="Path 34" d="M40.881,111.884c-5.843,4.545-12.137,5.805-17.195,11.094a29.908,29.908,0,0,0-.729,3.429s1.4,2.241,16.045-5.518c10.25-5.429,10-16.11,10.9-22.427-.841,2.847-4.434,9.3-9.018,13.423" fill="#ff4d4d"/>
      <path id="Path_35" data-name="Path 35" d="M55.15,117.708c.035-.573-2.282-4.715-2.9-4.909-.367-.115-1.565.551-2.478,1.111-.167-.09-.34-.179-.526-.265-2.388-1.109-5.582.928-7.884,1.777a65.167,65.167,0,0,0-15.2,7.511c-2.035,1.436-3.329,2.856-3.3,4.14a7.251,7.251,0,0,0,2.472,4.965c5.621,5.279,12.474.049,17.19-3.142,2.42-1.637,8.255-5.915,9.594-9.812,1.33-.425,3.016-1.03,3.037-1.376" fill="#ff6262"/>
      <path id="Path_36" data-name="Path 36" d="M30.647,134.153a12.54,12.54,0,0,0,6.286-1.679,38.788,38.788,0,0,0,15.4-13.437,8.493,8.493,0,0,0,2.791-1.281,8.678,8.678,0,0,0-2.754-4.968,8.8,8.8,0,0,1,1.933,4.125.652.652,0,0,1-.4.7c-.458.187-1.093.445-1.611.617a.718.718,0,0,1-.287.035.729.729,0,0,1-.277-.083.719.719,0,0,1-.221-.187.708.708,0,0,1-.129-.259,7.4,7.4,0,0,0-1.137-2.766,4.634,4.634,0,0,1-.566,4.874,21.7,21.7,0,0,1-3.883,3.3c-4.63,3.024-9.425,6.117-14.993,6.737a11.424,11.424,0,0,1-4.153-.318,5.618,5.618,0,0,1-3.53-2.223c1.059,3.619,3.773,6.554,7.535,6.808" fill="#ff4d4d"/>
      <path id="Path_37" data-name="Path 37" d="M34.073,33.267c-4.079-6.2-12.506-8.953-19.633-6.868S1.828,34.967.376,42.248A25,25,0,0,0,6.145,62.983c3.666,4.28,8.9,7.888,9.77,13.455A10.006,10.006,0,0,1,12.6,85.417,10,10,0,0,1,3.217,87.3,14.659,14.659,0,0,0,18.111,98.447c6.916-.292,13.209-4.746,16.963-10.561S40.319,75.052,40.7,68.141C41.344,56.376,40.546,43.113,34.073,33.267Z" fill="#c69200"/>
      <path id="Path_38" data-name="Path 38" d="M64.075,85.228c-.115-1.579-5.506-2.474-5.506-2.474s-5.207,1.663-5.094,3.241,2.58,2.686,5.506,2.474S64.189,86.806,64.075,85.228Z" fill="#ffbb8d"/>
      <path id="Path_39" data-name="Path 39" d="M58.977,87.032H58.9a3.792,3.792,0,0,1-4.026-3.41L53.45,67.888l5.826-.221c3.3-.126,2.4,5.479,2.585,7.82l.588,7.5a3.729,3.729,0,0,1-3.472,4.046" fill="#ffbb8d"/>
      <path id="Path_40" data-name="Path 40" d="M84.068,42.8a4.183,4.183,0,0,1,5.063-1.9,4.659,4.659,0,0,1,2.842,4.718,5.263,5.263,0,0,1-3.557,4.326,6.059,6.059,0,0,1-5.577-1.078" fill="#ffbb8d"/>
      <path id="Path_41" data-name="Path 41" d="M28.345,46.211a4.185,4.185,0,0,0-5.063-1.9,4.66,4.66,0,0,0-2.843,4.719A5.264,5.264,0,0,0,24,53.355a6.059,6.059,0,0,0,5.577-1.078" fill="#ffbb8d"/>
      <path id="Path_42" data-name="Path 42" d="M27.425,48.618c-.1,7.71,1.976,15.746,7.254,21.366,5.642,6.008,14.176,8.5,22.407,8.921,6.927.355,14.3-.74,19.688-5.113C85.312,66.858,86.2,54.377,86.4,43.38c.113-6.168.133-12.707-3.045-17.995-3.325-5.534-9.581-8.646-15.812-10.333a38.154,38.154,0,0,0-19-.684C32.321,18.377,27.625,33.55,27.426,48.617" fill="#ffa277"/>
      <path id="Path_43" data-name="Path 43" d="M33.557,61.545a23.064,23.064,0,0,1-.051-18.173c1.6-3.576,5.867-3.894,9.3-5.238a87.829,87.829,0,0,0,13.756-6.819c3.124-1.906,6.478-4.674,6.277-8.327.063,1.125,6.109,4.464,7.388,5.159,3.263,1.771,6.727,2.275,9.339,5.2,2.557,2.859,3.451,6.822,3.86,10.635,1.086,10.122-1.18,21.454-9.16,27.775A25.434,25.434,0,0,1,58.029,76.8C49.7,76.643,41.3,72.937,36.279,66.291a22.331,22.331,0,0,1-2.73-4.743" fill="#ffbb8d"/>
      <path id="Path_44" data-name="Path 44" d="M39.568,43.081a6.992,6.992,0,0,1,5.681-.884c.638.181,1.349.59,1.367,1.253.021.76-.852,1.186-1.584,1.4-2.583.741-5.43,1.313-7.212,3.325a2.5,2.5,0,0,1-.673.625c-1.5.772-.382-1.984-.2-2.455a6.983,6.983,0,0,1,2.618-3.26" fill="#c69200"/>
      <path id="Path_45" data-name="Path 45" d="M74.835,37.015a7,7,0,0,0-5.666.975c-.548.375-1.091.99-.9,1.624.223.728,1.187.852,1.946.818,2.685-.122,5.565-.488,7.9.849a2.5,2.5,0,0,0,.837.378c1.665.254-.271-2-.6-2.39a6.986,6.986,0,0,0-3.521-2.254" fill="#c69200"/>
      <path id="Path_46" data-name="Path 46" d="M44.163,49.854a2.674,2.674,0,0,1,1.424.608,3.406,3.406,0,0,1,1.279,3.061,2.887,2.887,0,0,1-2.2,2.4c-4.116.819-4.168-6.366-.507-6.071" fill="#1f111e"/>
      <path id="Path_47" data-name="Path 47" d="M73.489,45.988a2.672,2.672,0,0,1,1.424.609,3.4,3.4,0,0,1,1.279,3.06,2.888,2.888,0,0,1-2.2,2.4c-4.116.819-4.168-6.366-.508-6.071" fill="#1f111e"/>
      <path id="Path_48" data-name="Path 48" d="M65.332,65.145c-1.526,3.54-6.264,3.527-9.039,1.589a2.565,2.565,0,0,1-.861-.889,1.133,1.133,0,0,1,.048-1.184,1.193,1.193,0,0,1,.9-.4,4.328,4.328,0,0,1,1.01.132,10.436,10.436,0,0,0,4.5.072c.606-.167,1.177-.532,1.778-.747,1.409-.5,2.382-.233,1.665,1.431" fill="#fffbf8"/>
      <path id="Path_49" data-name="Path 49" d="M58.777,48.851l.213,5.9a2.324,2.324,0,1,1,.97,3.06" fill="none" stroke="#ffa277" stroke-linecap="round" stroke-linejoin="round" stroke-width="3"/>
      <path id="Path_50" data-name="Path 50" d="M32.576,41.87a22.613,22.613,0,0,1,8.539-4.878c7.014-2.168,14-5.3,18.413-11.538,3.817-5.4,4.779-13.2.9-18.553a15.179,15.179,0,0,0-10.6-5.83A23.375,23.375,0,0,0,37.716,3.293c-18.059,8.171-26.5,32.668-11.037,47.434-1.064-1.016,4.625-7.636,5.387-8.376q.252-.244.511-.48" fill="#c69200"/>
      <path id="Path_51" data-name="Path 51" d="M59.017,16.866A13.1,13.1,0,0,0,64.8,23.328a62.6,62.6,0,0,0,8.03,3.682,22.272,22.272,0,0,1,7.448,4.654C85,36.556,85.259,44.1,85.235,50.9c3.675-8.505,5.257-18.3,2.278-27.073-2.678-7.884-8.733-12.737-16.2-15.8-6.169-2.525-15.24.606-12.293,8.836" fill="#c69200"/>
      <path id="Path_52" data-name="Path 52" d="M195.894,119.788c.042-.618,6.329-.094,6.616-.453s-8.9-.582-8.448-2.227c.182-.672,8.351.871,8.621.715s-9.842-2.576-9.071-4.123c.274-.551,9.473,2.454,9.437,2.131s-7.31-2.544-6.736-3.878c.344-.8,6.822,1.63,8.609,2.317a2.373,2.373,0,0,0-.782-1.433c-1.968,0-2.978-1.661-2.774-2.285s2.328.286,4.38,1.041,2.942,4.81,2.942,4.81l1.821.57-.682,3.789s-1.75-.108-2.3-.056-3.7.554-4.164.583c-1.364.087-7.551-.289-7.468-1.5" fill="#cb4d25"/>
      <path id="Path_53" data-name="Path 53" d="M208.732,121.851c-.187-.543.935-5.154,1.479-5.506.323-.209,1.655.112,2.685.407.137-.132.28-.264.435-.4,2-1.709,5.627-.6,8.072-.4a65.185,65.185,0,0,1,16.66,3.165c2.345.839,3.973,1.861,4.291,3.1a7.254,7.254,0,0,1-1.053,5.446c-4,6.592-12,3.387-17.4,1.577-2.77-.929-9.537-3.488-11.871-6.885-1.4-.053-3.181-.184-3.295-.512" fill="#ffbc50"/>
      <path id="Path_54" data-name="Path 54" d="M250.391,83.135c-6.337,3.425-10.231,10.1-12.854,16.8s-4.326,13.825-7.878,20.091c2.625,3,6.327,4.072,10.313,4.156" fill="#ffbc50"/>
      <path id="Path_55" data-name="Path 55" d="M237.6,138.7c-.267-6.327-.8-22.182.124-30.856,3.6-18.776,5.968-23.315,17.111-26.184,9.963-2.565,20.882-1.892,24.865,20.9a352.79,352.79,0,0,1-.275,36.141Z" fill="#ffbc50"/>
      <path id="Path_56" data-name="Path 56" d="M267.121,133.845a19.3,19.3,0,0,1-.019,4.857h11.7c.3-3.488.474-7.012.852-10.477a21.826,21.826,0,0,1-16.312-.811,8.929,8.929,0,0,1,3.777,6.431" fill="#ff9443"/>
      <path id="Path_57" data-name="Path 57" d="M291.648,120.384c-.972-7.26-11.777-29.614-19.664-35.87s-5.036,27.649,9.052,36.384c10.938,6.783,10.612-.515,10.612-.515" fill="#ffbc50"/>
      <path id="Path_58" data-name="Path 58" d="M247.128,133.112c-.23-.575,5.658-2.837,5.761-3.286s-8.264,3.346-8.577,1.67c-.128-.684,7.9-2.849,8.074-3.106s-9.982,1.961-9.961.232c.008-.614,9.6-1.91,9.424-2.186s-7.689.889-7.752-.563c-.038-.869,6.851-1.5,8.76-1.658a2.366,2.366,0,0,0-1.327-.95c-1.772.857-3.4-.2-3.492-.851s2.221-.755,4.4-.968,4.742,3.052,4.742,3.052l1.888-.279,1.034,3.709s-1.622.664-2.1.95-3.1,2.11-3.5,2.337c-1.19.672-6.925,3.025-7.377,1.9" fill="#cb4d25"/>
      <path id="Path_59" data-name="Path 59" d="M259.586,129.381c-.4-.407-1.4-5.047-1.063-5.6.2-.329,1.539-.62,2.6-.8.066-.178.137-.359.219-.546,1.061-2.41,4.806-2.988,7.1-3.87a65.142,65.142,0,0,1,16.377-4.4c2.477-.265,4.386-.053,5.214.928a7.248,7.248,0,0,1,1.421,5.362c-.735,7.676-9.337,8.272-14.984,8.99-2.9.368-10.106,1.008-13.684-1.036-1.28.559-2.945,1.218-3.19.971" fill="#ffbc50"/>
      <path id="Path_60" data-name="Path 60" d="M288.848,125.553a12.537,12.537,0,0,1-5.829,2.889,38.773,38.773,0,0,1-20.436.075,8.505,8.505,0,0,1-2.942.881,8.682,8.682,0,0,1-1.212-5.55,8.8,8.8,0,0,0,1.272,4.374.651.651,0,0,0,.766.263c.468-.162,1.115-.388,1.617-.6a.728.728,0,0,0,.239-.164.719.719,0,0,0,.153-.245.715.715,0,0,0-.031-.566,7.385,7.385,0,0,1-.973-2.828,4.637,4.637,0,0,0,3.643,3.286,21.7,21.7,0,0,0,5.1-.083c5.473-.786,11.118-1.629,15.708-4.839a11.419,11.419,0,0,0,2.909-2.98,5.621,5.621,0,0,0,1.184-4c1.594,3.417,1.493,7.413-1.164,10.089" fill="#ff9443"/>
      <path id="Path_61" data-name="Path 61" d="M254.238,84.474C254.353,82.9,259.744,82,259.744,82s5.207,1.663,5.093,3.241-2.579,2.686-5.506,2.475-5.208-1.663-5.094-3.241" fill="#cb4d25"/>
      <path id="Path_62" data-name="Path 62" d="M259.336,86.284h.076a3.793,3.793,0,0,0,4.026-3.411l1.425-15.734-5.827-.221c-3.3-.125-2.4,5.479-2.584,7.82l-.588,7.5a3.729,3.729,0,0,0,3.472,4.046Z" fill="#cb4d25"/>
      <path id="Path_63" data-name="Path 63" d="M290.887,47.87c.1,7.71-1.976,15.746-7.254,21.367-5.642,6.007-14.176,8.5-22.407,8.921-6.927.355-14.3-.74-19.688-5.113-8.538-6.933-9.426-19.414-9.628-30.412-.114-6.168-.133-12.707,3.045-17.994,3.325-5.534,9.581-8.646,15.812-10.333a38.147,38.147,0,0,1,19-.684c16.224,4.008,20.92,19.181,21.119,34.248" fill="#ba3c1f"/>
      <path id="Path_64" data-name="Path 64" d="M283.792,60.38c1.418-3.094,3.149-7.624,2.309-11.044-.622-2.536-2.721-4.421-4.857-5.922a39.9,39.9,0,0,0-15.1-6.468c-3.234-.644-6.542-.885-9.76-1.606a17.506,17.506,0,0,1-8.747-4.327c-12.424,6.274-14.7,22.438-6.98,33.28,7.7,10.818,24.984,13.36,35.625,5.4a24.415,24.415,0,0,0,7.511-9.312" fill="#cb4d25"/>
      <path id="Path_65" data-name="Path 65" d="M264.9,45.8a2.671,2.671,0,0,0-1.424.608,3.4,3.4,0,0,0-1.279,3.06,2.89,2.89,0,0,0,2.2,2.4c4.116.818,4.168-6.366.507-6.071" fill="#1f111e"/>
      <path id="Path_66" data-name="Path 66" d="M239.177,43.613a2.671,2.671,0,0,0-1.424.609,3.4,3.4,0,0,0-1.28,3.06,2.886,2.886,0,0,0,2.2,2.4c4.116.819,4.168-6.366.507-6.071" fill="#1f111e"/>
      <path id="Path_67" data-name="Path 67" d="M237.163,37.59a3.7,3.7,0,0,0-2.131,1.485.989.989,0,0,0-.153.676c.1.458.633.656,1.094.74,1.6.3,6.814.481,7.392-1.714.7-2.648-5.178-1.534-6.2-1.187" fill="#1f111e"/>
      <path id="Path_68" data-name="Path 68" d="M270.512,45.078a3.7,3.7,0,0,0,2.6-.026,1,1,0,0,0,.508-.471c.179-.432-.154-.9-.487-1.229-1.156-1.147-5.356-4.238-7.071-2.752-2.069,1.794,3.411,4.187,4.452,4.477" fill="#1f111e"/>
      <path id="Path_69" data-name="Path 69" d="M249.036,64.239c2.031,3.276,6.715,2.564,9.174.239a2.572,2.572,0,0,0,.721-1.007,1.132,1.132,0,0,0-.223-1.164,1.193,1.193,0,0,0-.952-.268,4.388,4.388,0,0,0-.979.28,10.437,10.437,0,0,1-4.436.734c-.624-.076-1.243-.352-1.869-.476-1.468-.291-2.39.121-1.435,1.661" fill="#fffbf8"/>
      <path id="Path_70" data-name="Path 70" d="M268.809,99.866a27.47,27.47,0,0,0,6.664,15.746,62.785,62.785,0,0,0-11.683,3.8,55.581,55.581,0,0,0,5.019-19.548" fill="#ff9443"/>
      <path id="Path_71" data-name="Path 71" d="M237.616,130.445A92.3,92.3,0,0,1,240.8,97.538a123,123,0,0,0-5.44,21.741,5.353,5.353,0,0,0-3.113-1.643,23.4,23.4,0,0,1,1.157,8.773,34.2,34.2,0,0,1-15.235-2.143c-.938-.361-1.862-.764-2.762-1.215a2.975,2.975,0,0,1-1.643-1.671,5.671,5.671,0,0,1-.232-2.34,1.228,1.228,0,0,0-.019-.423.338.338,0,0,0-.51-.251.411.411,0,0,0-.168.165,1.307,1.307,0,0,0-.14.456,2.933,2.933,0,0,1-.447,1.211c-.612.848-2.03.836-2.949.689a.508.508,0,0,0-.132.579.515.515,0,0,0,.119.173,1.212,1.212,0,0,0,.791.286,4.871,4.871,0,0,1,1.89.255,5.051,5.051,0,0,1,1.261,1.273,10.5,10.5,0,0,0,2.9,1.811,49.15,49.15,0,0,0,5.453,2.552,38.631,38.631,0,0,0,9.717,2.456,37.469,37.469,0,0,0,6.319.169" fill="#ff9443"/>
      <path id="Path_72" data-name="Path 72" d="M291.317,19.377a33.254,33.254,0,0,0-26.243-16.6,23.344,23.344,0,0,0-13.028,2.557,14.906,14.906,0,0,0-7.636,10.518c-.772,5.457,2.334,11.015,6.931,14.057,5.522,3.656,12.511,3.985,18.9,5.728,9.01,2.457,16.975,8.744,20.649,17.439,6.211-9.845,6.1-23.57.427-33.7" fill="#1f111e"/>
      <path id="Path_73" data-name="Path 73" d="M236.031,14.8c-4.282,2.628-7.072,7.195-8.638,11.969a34.363,34.363,0,0,0,.114,21.451,15.273,15.273,0,0,0,1.691,4.094,8.551,8.551,0,0,0,3.371,2.826.417.417,0,0,0,.193.053.291.291,0,0,0,.167-.09.3.3,0,0,0,.077-.174.911.911,0,0,0-.063-.383,12.944,12.944,0,0,1-.574-3.188,16.053,16.053,0,0,1,.3-3.069c.308-2.37.572-4.752,1.1-7.086a17.326,17.326,0,0,1,4.775-9.14,28.7,28.7,0,0,1,6.475-3.9c4.071-2.082,10.162-7.357,6.309-12.39-3.335-4.357-11.239-3.471-15.3-.977" fill="#1f111e"/>
      <path id="Path_74" data-name="Path 74" d="M248.735,48.239a11.689,11.689,0,0,1,.019,4.527,6.352,6.352,0,0,0-2.649.661,1.454,1.454,0,0,0-.811.766c-.232.722.621,1.364,1.378,1.4a21.419,21.419,0,0,1,2.264-.137" fill="none" stroke="#ba3c1f" stroke-linecap="round" stroke-linejoin="round" stroke-width="3"/>
      <path id="Path_75" data-name="Path 75" d="M284.987,47.5a14.06,14.06,0,0,1,3.375-3.3,5.2,5.2,0,0,1,4.528-.646A4.716,4.716,0,0,1,295.424,49a7.089,7.089,0,0,1-4.343,4.6,14.875,14.875,0,0,1-6.467.791" fill="#cb4d25"/>
      <path id="Path_76" data-name="Path 76" d="M289.559,45.944a5.178,5.178,0,0,0-2.571,2.781,2.947,2.947,0,0,0-.3,1.992,1.746,1.746,0,0,0,3.345.021,6.469,6.469,0,0,0,.061-1.774,1.515,1.515,0,0,1,.8-1.469,2.065,2.065,0,0,1,.917-.016c1.1.125,1.446-.592.574-1.287a2.994,2.994,0,0,0-2.831-.248" fill="#ba3c1f"/>
    </g>
    <g id="Group_11580" data-name="Group 11580" transform="translate(186.536 -99)">
      <path id="Path_77" data-name="Path 77" d="M7.132,38.446a21.039,21.039,0,0,1-5-8.507C.252,24.056-.549,17.183,2.5,11.6A20.854,20.854,0,0,1,14.2,2.15,47.235,47.235,0,0,1,28.012.079C39.359-.292,50.7.739,62.04,1.271c8.323.39,16.945.554,24.829,3.563,7,2.671,13.776,7.154,17.039,14.115a23.459,23.459,0,0,1,1.317,16.186C103.8,40.184,100.176,45,95.056,46.144c-4.195.938-8.821-.662-12.761,1.058-2.791,1.22-4.639,3.857-6.761,6.043s-5.136,4.1-8.057,3.234a6.067,6.067,0,0,0,.377-7.235A10.831,10.831,0,0,0,61.73,44.5a23.057,23.057,0,0,0-6.176-.69c-12.078-.136-24.245,1.792-36.182-.054a24.147,24.147,0,0,1-9.949-3.419,15.8,15.8,0,0,1-2.292-1.9" fill="#dcf0f2"/>
      <path id="Path_78" data-name="Path 78" d="M19.941,34h5.018c3.043,0,4.417-1.515,4.417-3.522a3.044,3.044,0,0,0-2.717-3.241v-.128a2.679,2.679,0,0,0,2.205-2.761c0-1.937-1.342-3.439-4.129-3.439H19.941Zm1.975-1.694V28.113h2.921a2.344,2.344,0,0,1,2.576,2.269c0,1.1-.748,1.924-2.646,1.924Zm0-5.734V22.59h2.7c1.566,0,2.314.825,2.314,1.911a2.143,2.143,0,0,1-2.365,2.071ZM35.7,34.2c2.768,0,4.577-2.026,4.577-5.062,0-3.055-1.809-5.082-4.577-5.082s-4.577,2.026-4.577,5.082C31.124,32.172,32.933,34.2,35.7,34.2Zm.006-1.6c-1.809,0-2.653-1.579-2.653-3.465s.844-3.477,2.653-3.477,2.64,1.6,2.64,3.477S37.5,32.594,35.707,32.594Zm8.615-4.423a2.224,2.224,0,0,1,2.288-2.461,2.011,2.011,0,0,1,2.084,2.276V34h1.911V27.755c0-2.429-1.336-3.7-3.343-3.7a2.923,2.923,0,0,0-2.9,1.726h-.121v-1.6H42.411V34h1.911Zm8.847-3.989V34.626c0,.908-.377,1.406-1.285,1.406h-.307v1.643c.134.006.256.006.39.006a2.763,2.763,0,0,0,3.113-3.043V24.182Zm.946-1.515a1.143,1.143,0,1,0-1.208-1.138A1.181,1.181,0,0,0,54.115,22.667ZM61.787,34.2c2.768,0,4.577-2.026,4.577-5.062,0-3.055-1.809-5.082-4.577-5.082S57.21,26.08,57.21,29.136C57.21,32.172,59.019,34.2,61.787,34.2Zm.006-1.6c-1.809,0-2.653-1.579-2.653-3.465s.844-3.477,2.653-3.477,2.64,1.6,2.64,3.477S63.589,32.594,61.793,32.594Zm12.923-2.665a2.313,2.313,0,0,1-2.308,2.461,1.985,1.985,0,0,1-2-2.192V24.182H68.5v6.245c0,2.435,1.336,3.7,3.222,3.7A3.042,3.042,0,0,0,74.652,32.3h.1V34h1.879V24.182H74.716ZM79.2,34h1.911V28a2.207,2.207,0,0,1,2.346-2.212,4.513,4.513,0,0,1,1,.115V24.08a7.783,7.783,0,0,0-.812-.045,2.555,2.555,0,0,0-2.493,1.707h-.1v-1.56H79.2Z" fill="#1f1f1f"/>
    </g>
    <g id="Group_11581" data-name="Group 11581" transform="translate(93.187 -97.476)">
      <path id="Path_79" data-name="Path 79" d="M24.565,60.191a32.68,32.68,0,0,0,9.563.745,9.351,9.351,0,0,1-2.811-1.741c-2.319-2.353-.107-5.406,2.264-6.629,3.812-1.966,8.831-.872,12.965-1.283,5.351-.532,10.676.342,15.971-1.018,9.273-2.381,16.494-11.029,17.489-20.551A25.858,25.858,0,0,0,67.666,5.476C59.666.7,49.849.526,40.537.484,34.193.455,27.776.435,21.611,1.93S9.461,6.612,5.848,11.83C2.079,17.27.941,24.362.818,30.858a29.452,29.452,0,0,0,6.14,18.53A31.064,31.064,0,0,0,24.565,60.191Z" fill="#dcf0f2"/>
      <path id="Path_80" data-name="Path 80" d="M22.659,30.3V32h-3.8V17.76h1.9V30.3Zm7.867,0V32h-7.86V30.3h2.98V22h1.9v8.3Zm-4.84,3.3h1.82v1.96h-1.82ZM36.9,21.8a3.662,3.662,0,0,1,2.48.78,3.245,3.245,0,0,1,.9,2.6V32h-9.76V30.3H38.4V25.38a1.715,1.715,0,0,0-1.96-1.92q-.88,0-4.14.32l-.06-1.34a24.121,24.121,0,0,1,2.42-.44A15.984,15.984,0,0,1,36.9,21.8ZM49.815,32h-2.76v.12a6.539,6.539,0,0,1-.82,3.6,2.758,2.758,0,0,1-2.48,1.26,9.1,9.1,0,0,1-1-.06l-.48-.04V35.2q.66.06,1.08.06a1.511,1.511,0,0,0,1.36-.72,3.744,3.744,0,0,0,.46-2.02V22.02h1.88V30.3h2.76Zm7.08-10.2a4.857,4.857,0,0,1,3.72,1.22A5.724,5.724,0,0,1,61.755,27v5H49.814V30.3h3.24a19.109,19.109,0,0,1-.28-3.22,18.221,18.221,0,0,1,.18-2.54,20.015,20.015,0,0,1,.4-2.16,8.111,8.111,0,0,1,1.48-.4A11.178,11.178,0,0,1,56.895,21.8Zm-2.24,5.28q0,.9.08,1.8.1.88.2,1.42h4.92V26.96a3.7,3.7,0,0,0-.78-2.64,3.189,3.189,0,0,0-2.44-.82,7.812,7.812,0,0,0-1.68.18A21.234,21.234,0,0,0,54.654,27.08Z" fill="#1f1f1f"/>
    </g>
    <g id="Group_11582" data-name="Group 11582" transform="translate(-10.652 -99.146)">
      <path id="Path_81" data-name="Path 81" d="M61.267,55.753a7.659,7.659,0,0,0,.058-2.255,7.427,7.427,0,0,0-4.2-5.866c-3.308-1.456-7.046-1.458-10.659-1.435-6.97.044-13.881.525-20.761.749-6.107.2-12.727-.045-17.892-3.727-6.8-4.846-8.789-14.726-5.83-22.53S11.99,7.152,19.756,4.1,36.007.362,44.351.192C59.838-.129,86.558.745,91.412,19.313c1.238,4.735,2.077,9.978.992,14.824a11.841,11.841,0,0,1-3.393,6.21c-2.209,2.075-3.857,2.488-6.856,3.026-3.172.568-6.472,1.191-9.045,3.131-2.591,1.953-4.1,4.975-5.935,7.647s-4.442,5.239-7.684,5.38a7.841,7.841,0,0,0,1.775-3.777" fill="#dcf0f2"/>
      <path id="Path_82" data-name="Path 82" d="M26.571,30h1.975V24.292h6.526V30h1.982V16.909H35.072V22.6H28.546V16.909H26.571Zm17.438.2c2.141,0,3.656-1.055,4.091-2.653l-1.809-.326a2.221,2.221,0,0,1-2.263,1.4,2.7,2.7,0,0,1-2.787-2.953h6.98v-.678c0-3.548-2.122-4.935-4.347-4.935-2.736,0-4.538,2.084-4.538,5.1C39.336,28.2,41.113,30.2,44.008,30.2Zm-2.761-5.964a2.637,2.637,0,0,1,2.64-2.6,2.425,2.425,0,0,1,2.461,2.6Zm11.006-7.325H50.341V30h1.911Zm4.482,0H54.824V30h1.911ZM63.442,30.2c2.768,0,4.577-2.026,4.577-5.062,0-3.055-1.809-5.082-4.577-5.082s-4.577,2.026-4.577,5.082C58.865,28.172,60.674,30.2,63.442,30.2Zm.006-1.6c-1.809,0-2.653-1.579-2.653-3.465s.844-3.477,2.653-3.477,2.64,1.6,2.64,3.477S65.244,28.594,63.448,28.594Z" fill="#1f1f1f"/>
    </g>
  </g>
</svg>
